<?xml version="1.0" encoding="UTF-8"?>
<svg id="katman_1" xmlns="http://www.w3.org/2000/svg" version="1.1" viewBox="0 0 323.1 52.5">
  <!-- Generator: Adobe Illustrator 30.5.1, SVG Export Plug-In . SVG Version: 2.1.4 Build 3)  -->
  <defs>
    <style>
      .st0 {
        fill: #3c3c3b;
      }

      .st1 {
        fill: #017ee4;
      }
    </style>
  </defs>
  <path class="st1" d="M46.1,0H9.8C4.4,0,0,4.4,0,9.8v33c0,5.4,4.4,9.8,9.8,9.8h12.3v-31l7.6-4.3,8.1,4.9.2,9.1-8.3,5.2.6,4.6,13.2-7.1v-15.3l-13.9-8.6-13.4,8.6-.5,31.4-5.9-3.4V15L29.8,2.7l19.8,11.4v22.7l-19.9,11.7v4h16.4c5.4,0,9.8-4.4,9.8-9.8V9.8c0-5.4-4.4-9.8-9.8-9.8Z"/>
  <g>
    <g>
      <path class="st0" d="M70,30.6h-3.1V4.9h5.4c2.6,0,4.8,0,6.5,1.3,1.6,1.2,2.6,3.3,2.6,5.8s-1,4.6-2.6,5.8c-1.7,1.2-3.8,1.3-6.5,1.3h-2.3v11.6ZM71.4,16.3c4.4,0,6.7-.6,6.7-4.1s-2.2-4.5-6.7-4.5h-1.5v8.6h1.5Z"/>
      <path class="st0" d="M85.2,4.9h6c2.4,0,4.3,0,5.9,1.3,1.5,1.2,2.4,3.2,2.4,5.7,0,4.2-2.4,6.4-6.9,6.4h-.5l9.8,12.3h-3.9l-9.4-12.3h-.4v12.3h-3.1V4.9ZM88.3,16.1h2.3c4,0,6-.6,6-4.1s-1.9-4.5-6-4.5h-2.3v8.6Z"/>
      <path class="st0" d="M104.5,4.9h13.6v2.8h-10.5v7.4h10.5v2.8h-10.5v9.9h10.5v2.8h-13.6V4.9Z"/>
      <path class="st0" d="M127.2,13.2l-3.2,17.5h-3l5.2-26.7,9,21.3,9-21.3,5.2,26.7h-3l-3.3-17.5-8,18.5-8-18.5Z"/>
      <path class="st0" d="M153.4,4.9h3.1v25.7h-3.1V4.9Z"/>
      <path class="st0" d="M165.7,4.9v16c0,5.1,2.1,7.6,6.9,7.6s6.9-2.4,6.9-7.6V4.9h3.1v16c0,6.9-3.3,10.4-10,10.4s-10-3.5-10-10.4V4.9h3.1Z"/>
      <path class="st0" d="M192.6,13.2l-3.2,17.5h-3l5.2-26.7,9,21.3,9-21.3,5.2,26.7h-3l-3.3-17.5-8,18.5-8-18.5Z"/>
      <path class="st0" d="M232.5,30.6h-3.1V4.9h5.4c2.6,0,4.8,0,6.5,1.3,1.6,1.2,2.6,3.3,2.6,5.8s-1,4.6-2.6,5.8c-1.7,1.2-3.8,1.3-6.5,1.3h-2.3v11.6ZM234,16.3c4.4,0,6.7-.6,6.7-4.1s-2.2-4.5-6.7-4.5h-1.5v8.6h1.5Z"/>
      <path class="st0" d="M270,27.4c-2.6,2.6-6.2,4-9.8,4s-7.1-1.4-9.7-4c-2.6-2.6-4-5.9-4-9.5s1.4-7,4-9.6c2.6-2.5,6.1-3.9,9.7-3.9s7.2,1.4,9.8,3.9c2.6,2.6,4,5.9,4,9.6s-1.4,7-4,9.5ZM267.7,25.3c2-2,3.1-4.6,3.1-7.5s-1.1-5.5-3.1-7.6-4.6-3.1-7.5-3.1-5.5,1.1-7.5,3.1c-2,2.1-3.1,4.7-3.1,7.6s1.1,5.4,3.1,7.5c2.1,2.1,4.6,3.1,7.5,3.1s5.4-1.1,7.5-3.1Z"/>
      <path class="st0" d="M301.3,27.4c-2.6,2.6-6.2,4-9.8,4s-7.1-1.4-9.7-4c-2.6-2.6-4-5.9-4-9.5s1.4-7,4-9.6c2.6-2.5,6.1-3.9,9.7-3.9s7.2,1.4,9.8,3.9c2.6,2.6,4,5.9,4,9.6s-1.4,7-4,9.5ZM299,25.3c2-2,3.1-4.6,3.1-7.5s-1.1-5.5-3.1-7.6-4.6-3.1-7.5-3.1-5.5,1.1-7.5,3.1c-2,2.1-3.1,4.7-3.1,7.6s1.1,5.4,3.1,7.5c2.1,2.1,4.6,3.1,7.5,3.1s5.4-1.1,7.5-3.1Z"/>
      <path class="st0" d="M310.3,4.9h3.1v22.8h9.7v2.9h-12.8V4.9Z"/>
    </g>
    <g>
      <path class="st0" d="M70.7,42.5l-3.3-5.2h1.4l2.5,4.2h0s2.5-4.2,2.5-4.2h1.3l-3.2,5.2v3.4h-1.2v-3.4Z"/>
      <path class="st0" d="M82.5,43.7c0,.5.1.9.3,1.1s.5.3,1,.3.9-.2,1.2-.6.4-.9.4-1.6v-3.3h1.1v6.3h-1v-1c0,.1-.1.2-.2.3-.4.5-1,.8-1.7.8s-1.2-.2-1.6-.5-.5-.9-.5-1.6v-4.3h1.1v4ZM82.5,37.5h1.1v1.2h-1.1v-1.2ZM84.4,37.5h1.1v1.2h-1.1v-1.2Z"/>
      <path class="st0" d="M93.1,45.1l3.8-4.6h-3.5v-.9h4.9v.8l-3.8,4.6h3.9v.9h-5.3v-.8Z"/>
      <path class="st0" d="M104.9,39.7h1v.9l.2-.3c.5-.6,1-.8,1.7-.8s1,.2,1.3.5.3.3.3.5l.2-.2c.5-.5,1-.8,1.6-.8s1.2.2,1.5.5.5.9.5,1.5v4.4h-1.1v-4c0-.5,0-.8-.3-1.1s-.5-.4-.9-.4-.8.2-1.1.5-.4.8-.4,1.4v3.5h-1.1v-4.3c0-.4,0-.7-.3-.9s-.4-.3-.8-.3-.9.2-1.2.6-.4.9-.4,1.5v3.4h-1.1v-6.3Z"/>
      <path class="st0" d="M122.9,46.1c-.9,0-1.6-.3-2.1-.8s-.8-1.3-.8-2.3.3-1.9.8-2.5,1.3-.9,2.2-.9,1.5.3,2,.9.8,1.4.8,2.4v.4h-4.6c0,.6.2,1.1.4,1.4.3.4.8.6,1.4.6s.8-.1,1.1-.3.5-.5.6-.9h1c-.2.7-.5,1.2-.9,1.6s-1.1.5-1.8.5ZM124.6,42.3c0-.6-.2-1-.4-1.4-.3-.4-.7-.5-1.3-.5s-1,.2-1.3.6c-.3.3-.4.8-.5,1.3h3.5Z"/>
      <path class="st0" d="M141.3,37.3h1.2v3.5h4.5v-3.5h1.2v8.6h-1.2v-4h-4.5v4h-1.2v-8.6Z"/>
      <path class="st0" d="M156.8,46.1c-.6,0-1.1-.2-1.5-.5s-.5-.8-.5-1.3.2-1,.5-1.3.8-.5,1.5-.6l1.4-.2c.1,0,.2,0,.3,0,.1,0,.2-.1.3-.2s.1-.2.1-.4h0c0-.4-.1-.7-.4-.8s-.6-.3-1.1-.3-.8.1-1,.3-.4.5-.4.9h-1c0-.7.3-1.2.7-1.5s1.1-.5,1.9-.5,1.3.2,1.7.5.6.8.6,1.4v3.4c0,.1,0,.2,0,.3s.2,0,.3,0,0,0,.1,0,.1,0,.2,0v.8c-.1,0-.2,0-.3,0s-.2,0-.3,0c-.4,0-.7-.1-.9-.3-.1-.1-.2-.3-.3-.6,0,0-.2.2-.3.3-.5.5-1.2.7-1.9.7ZM159,43.5v-.7c-.2,0-.4.2-.7.2h-1c-.5.2-.9.3-1.1.5s-.4.4-.4.7,0,.6.3.8.5.3.8.3c.6,0,1-.2,1.4-.5.3-.2.4-.4.5-.7,0,0,0-.1,0-.2,0-.1,0-.2,0-.4Z"/>
      <path class="st0" d="M166.6,39.7h1.2l1.7,5.1h0l1.7-5.1h1.2l-2.3,6.3h-1.1l-2.3-6.3Z"/>
      <path class="st0" d="M179.8,43.7c0,.5.1.9.3,1.1s.5.3,1,.3.9-.2,1.2-.6.4-.9.4-1.6v-3.3h1.1v6.3h-1v-1c0,.1-.1.2-.2.3-.4.5-1,.8-1.7.8s-1.2-.2-1.6-.5-.5-.9-.5-1.6v-4.3h1.1v4Z"/>
      <path class="st0" d="M190.3,45.1l3.8-4.6h-3.5v-.9h4.9v.8l-3.8,4.6h3.9v.9h-5.3v-.8Z"/>
      <path class="st0" d="M203.2,43.7c0,.5.1.9.3,1.1s.5.3,1,.3.9-.2,1.2-.6.4-.9.4-1.6v-3.3h1.1v6.3h-1v-1c0,.1-.1.2-.2.3-.4.5-1,.8-1.7.8s-1.2-.2-1.6-.5-.5-.9-.5-1.6v-4.3h1.1v4Z"/>
      <path class="st0" d="M230.3,42.8c-.1,1.1-.6,1.9-1.2,2.5s-1.5.9-2.5.9-2.1-.4-2.8-1.2-1.1-1.9-1.1-3.3.4-2.5,1.1-3.3,1.7-1.2,3-1.2,1.8.2,2.4.8,1,1.2,1.1,2.1h-1.1c-.1-.6-.4-1-.8-1.3s-1-.5-1.6-.5-1.6.3-2.1,1-.8,1.5-.8,2.6.2,2,.7,2.6,1.2.9,2.1.9,1.2-.2,1.7-.6.7-1,.9-1.8h1.1ZM226.8,45.9l-.5.8h.4c.3,0,.6,0,.7.2s.3.4.3.7-.1.6-.4.8-.6.3-1,.3-.3,0-.5,0-.4-.1-.6-.2l.2-.5c.1,0,.3,0,.4.1s.3,0,.4,0c.2,0,.4,0,.5-.1s.2-.2.2-.4,0-.2-.2-.3-.2-.1-.4-.1-.1,0-.2,0-.2,0-.3,0l-.2-.2.8-1h.6Z"/>
      <path class="st0" d="M237.5,45.2c-.5-.6-.8-1.4-.8-2.4s.3-1.8.8-2.4,1.2-.9,2.1-.9,1.6.3,2.1.9.8,1.4.8,2.4-.3,1.8-.8,2.4-1.2.9-2.1.9-1.6-.3-2.1-.9ZM240.9,44.5c.3-.4.5-1,.5-1.8s-.2-1.3-.5-1.8-.8-.7-1.3-.7-1,.2-1.3.7-.5,1-.5,1.8.2,1.3.5,1.8.8.7,1.3.7,1-.2,1.3-.7ZM238,37.5h1.1v1.2h-1.1v-1.2ZM240,37.5h1.1v1.2h-1.1v-1.2Z"/>
      <path class="st0" d="M248.7,45.1l3.8-4.6h-3.5v-.9h4.9v.8l-3.8,4.6h3.9v.9h-5.3v-.8Z"/>
      <path class="st0" d="M261.6,43.7c0,.5.1.9.3,1.1s.5.3,1,.3.9-.2,1.2-.6.4-.9.4-1.6v-3.3h1.1v6.3h-1v-1c0,.1-.1.2-.2.3-.4.5-1,.8-1.7.8s-1.2-.2-1.6-.5-.5-.9-.5-1.6v-4.3h1.1v4ZM261.5,37.5h1.1v1.2h-1.1v-1.2ZM263.5,37.5h1.1v1.2h-1.1v-1.2Z"/>
      <path class="st0" d="M272.6,39.7h1v.9l.2-.3c.5-.6,1-.8,1.7-.8s1,.2,1.3.5.3.3.3.5l.2-.2c.5-.5,1-.8,1.6-.8s1.2.2,1.5.5.5.9.5,1.5v4.4h-1.1v-4c0-.5,0-.8-.3-1.1s-.5-.4-.9-.4-.8.2-1.1.5-.4.8-.4,1.4v3.5h-1.1v-4.3c0-.4,0-.7-.3-.9s-.4-.3-.8-.3-.9.2-1.2.6-.4.9-.4,1.5v3.4h-1.1v-6.3Z"/>
      <path class="st0" d="M288,37.3h1.1v8.6h-1.1v-8.6Z"/>
      <path class="st0" d="M298.6,46.1c-.9,0-1.6-.3-2.1-.8s-.8-1.3-.8-2.3.3-1.9.8-2.5,1.3-.9,2.2-.9,1.5.3,2,.9.8,1.4.8,2.4v.4h-4.6c0,.6.2,1.1.4,1.4.3.4.8.6,1.4.6s.8-.1,1.1-.3.5-.5.6-.9h1c-.2.7-.5,1.2-.9,1.6s-1.1.5-1.8.5ZM300.3,42.3c0-.6-.2-1-.4-1.4-.3-.4-.7-.5-1.3-.5s-1,.2-1.3.6c-.3.3-.4.8-.5,1.3h3.5Z"/>
      <path class="st0" d="M308.2,39.7h1v1.1c0-.2.2-.3.3-.5.4-.5.9-.8,1.5-.8s.2,0,.3,0v1.1h-.2c-.6,0-1,.2-1.3.5s-.5.8-.5,1.5v3.4h-1.1v-6.3Z"/>
      <path class="st0" d="M317.5,37.3h1.1v1.2h-1.1v-1.2ZM317.5,39.7h1.1v6.3h-1.1v-6.3Z"/>
    </g>
  </g>
</svg>